<svg xmlns="http://www.w3.org/2000/svg" xmlns:xlink="http://www.w3.org/1999/xlink" contentStyleType="text/css" data-diagram-type="SEQUENCE" height="412px" preserveAspectRatio="none" style="width:424px;height:412px;background:#FFFFFF;" version="1.1" viewBox="0 0 424 412" width="424px" zoomAndPan="magnify"><defs/><g><g><title>Клиент</title><rect fill="transparent" height="249.9297" width="8" x="30.9541" y="81.2969"/><line style="stroke:#181818;stroke-width:0.5;stroke-dasharray:5.0,5.0;" x1="34" x2="34" y1="81.2969" y2="331.2266"/></g><g><title>Система</title><rect fill="transparent" height="249.9297" width="8" x="162.9595" y="81.2969"/><line style="stroke:#181818;stroke-width:0.5;stroke-dasharray:5.0,5.0;" x1="166.7192" x2="166.7192" y1="81.2969" y2="331.2266"/></g><g><title>Касса</title><rect fill="transparent" height="249.9297" width="8" x="309.1812" y="81.2969"/><line style="stroke:#181818;stroke-width:0.5;stroke-dasharray:5.0,5.0;" x1="312.9351" x2="312.9351" y1="81.2969" y2="331.2266"/></g><g><title>Курьер</title><rect fill="transparent" height="249.9297" width="8" x="380.8584" y="81.2969"/><line style="stroke:#181818;stroke-width:0.5;stroke-dasharray:5.0,5.0;" x1="384.4272" x2="384.4272" y1="81.2969" y2="331.2266"/></g><text fill="#000000" font-family="sans-serif" font-size="14" lengthAdjust="spacing" textLength="53.9082" x="5" y="77.9951">Клиент</text><ellipse cx="34.9541" cy="13.5" fill="#E2E2F0" rx="8" ry="8" style="stroke:#181818;stroke-width:0.5;"/><path d="M34.9541,21.5 L34.9541,48.5 M21.9541,29.5 L47.9541,29.5 M34.9541,48.5 L21.9541,63.5 M34.9541,48.5 L47.9541,63.5 " fill="transparent" style="stroke:#181818;stroke-width:0.5;"/><text fill="#000000" font-family="sans-serif" font-size="14" lengthAdjust="spacing" textLength="53.9082" x="5" y="343.2217">Клиент</text><ellipse cx="34.9541" cy="355.0234" fill="#E2E2F0" rx="8" ry="8" style="stroke:#181818;stroke-width:0.5;"/><path d="M34.9541,363.0234 L34.9541,390.0234 M21.9541,371.0234 L47.9541,371.0234 M34.9541,390.0234 L21.9541,405.0234 M34.9541,390.0234 L47.9541,405.0234 " fill="transparent" style="stroke:#181818;stroke-width:0.5;"/><rect fill="#E2E2F0" height="30.2969" rx="2.5" ry="2.5" style="stroke:#181818;stroke-width:0.5;" width="76.4805" x="128.7192" y="50"/><text fill="#000000" font-family="sans-serif" font-size="14" lengthAdjust="spacing" textLength="62.4805" x="135.7192" y="69.9951">Система</text><rect fill="#E2E2F0" height="30.2969" rx="2.5" ry="2.5" style="stroke:#181818;stroke-width:0.5;" width="76.4805" x="128.7192" y="330.2266"/><text fill="#000000" font-family="sans-serif" font-size="14" lengthAdjust="spacing" textLength="62.4805" x="135.7192" y="350.2217">Система</text><rect fill="#E2E2F0" height="30.2969" rx="2.5" ry="2.5" style="stroke:#181818;stroke-width:0.5;" width="56.4922" x="284.9351" y="50"/><text fill="#000000" font-family="sans-serif" font-size="14" lengthAdjust="spacing" textLength="42.4922" x="291.9351" y="69.9951">Касса</text><rect fill="#E2E2F0" height="30.2969" rx="2.5" ry="2.5" style="stroke:#181818;stroke-width:0.5;" width="56.4922" x="284.9351" y="330.2266"/><text fill="#000000" font-family="sans-serif" font-size="14" lengthAdjust="spacing" textLength="42.4922" x="291.9351" y="350.2217">Касса</text><rect fill="#E2E2F0" height="30.2969" rx="2.5" ry="2.5" style="stroke:#181818;stroke-width:0.5;" width="66.8623" x="351.4272" y="50"/><text fill="#000000" font-family="sans-serif" font-size="14" lengthAdjust="spacing" textLength="52.8623" x="358.4272" y="69.9951">Курьер</text><rect fill="#E2E2F0" height="30.2969" rx="2.5" ry="2.5" style="stroke:#181818;stroke-width:0.5;" width="66.8623" x="351.4272" y="330.2266"/><text fill="#000000" font-family="sans-serif" font-size="14" lengthAdjust="spacing" textLength="52.8623" x="358.4272" y="350.2217">Курьер</text><polygon fill="#181818" points="154.9595,108.4297,164.9595,112.4297,154.9595,116.4297,158.9595,112.4297" style="stroke:#181818;stroke-width:1;"/><line style="stroke:#181818;stroke-width:1;" x1="34.9541" x2="160.9595" y1="112.4297" y2="112.4297"/><text fill="#000000" font-family="sans-serif" font-size="13" lengthAdjust="spacing" textLength="107.0088" x="41.9541" y="107.3638">Выбрать блюда</text><line style="stroke:#181818;stroke-width:1;" x1="166.9595" x2="208.9595" y1="141.5625" y2="141.5625"/><line style="stroke:#181818;stroke-width:1;" x1="208.9595" x2="208.9595" y1="141.5625" y2="154.5625"/><line style="stroke:#181818;stroke-width:1;" x1="167.9595" x2="208.9595" y1="154.5625" y2="154.5625"/><polygon fill="#181818" points="177.9595,150.5625,167.9595,154.5625,177.9595,158.5625,173.9595,154.5625" style="stroke:#181818;stroke-width:1;"/><text fill="#000000" font-family="sans-serif" font-size="13" lengthAdjust="spacing" textLength="132.2217" x="173.9595" y="136.4966">Проверить остатки</text><line style="stroke:#181818;stroke-width:1;" x1="166.9595" x2="208.9595" y1="183.6953" y2="183.6953"/><line style="stroke:#181818;stroke-width:1;" x1="208.9595" x2="208.9595" y1="183.6953" y2="196.6953"/><line style="stroke:#181818;stroke-width:1;" x1="167.9595" x2="208.9595" y1="196.6953" y2="196.6953"/><polygon fill="#181818" points="177.9595,192.6953,167.9595,196.6953,177.9595,200.6953,173.9595,196.6953" style="stroke:#181818;stroke-width:1;"/><text fill="#000000" font-family="sans-serif" font-size="13" lengthAdjust="spacing" textLength="122.1606" x="173.9595" y="178.6294">Применить акции</text><polygon fill="#181818" points="154.9595,221.8281,164.9595,225.8281,154.9595,229.8281,158.9595,225.8281" style="stroke:#181818;stroke-width:1;"/><line style="stroke:#181818;stroke-width:1;" x1="34.9541" x2="160.9595" y1="225.8281" y2="225.8281"/><text fill="#000000" font-family="sans-serif" font-size="13" lengthAdjust="spacing" textLength="108.0054" x="41.9541" y="220.7622">Оплатить заказ</text><polygon fill="#181818" points="301.1812,250.9609,311.1812,254.9609,301.1812,258.9609,305.1812,254.9609" style="stroke:#181818;stroke-width:1;"/><line style="stroke:#181818;stroke-width:1;" x1="166.9595" x2="307.1812" y1="254.9609" y2="254.9609"/><text fill="#000000" font-family="sans-serif" font-size="13" lengthAdjust="spacing" textLength="120.8784" x="173.9595" y="249.895">Запрос на оплату</text><polygon fill="#181818" points="177.9595,280.0938,167.9595,284.0938,177.9595,288.0938,173.9595,284.0938" style="stroke:#181818;stroke-width:1;"/><line style="stroke:#181818;stroke-width:1;stroke-dasharray:2.0,2.0;" x1="171.9595" x2="312.1812" y1="284.0938" y2="284.0938"/><text fill="#000000" font-family="sans-serif" font-size="13" lengthAdjust="spacing" textLength="111.8457" x="183.9595" y="279.0278">Подтверждение</text><polygon fill="#181818" points="372.8584,309.2266,382.8584,313.2266,372.8584,317.2266,376.8584,313.2266" style="stroke:#181818;stroke-width:1;"/><line style="stroke:#181818;stroke-width:1;" x1="166.9595" x2="378.8584" y1="313.2266" y2="313.2266"/><text fill="#000000" font-family="sans-serif" font-size="13" lengthAdjust="spacing" textLength="114.2261" x="173.9595" y="308.1606">Назначить заказ</text><!--SRC=[ROyzRi9048NxFSM8dWjGfA5qwHDOL3G9Sdm0sqXG1AL84ybIGBd1WZ2ixCI-mfiRyTO_Ka9IkF3CDzzx6osIfrXGe8P3YM_DpIgAa-LYkOeU4vdW4quppRdxWfr8z2pX7L70aiY6RN2_rRMckaEfQRUV6_CpJQOF4iu4R_g2ewPKvReJ757hAywm9Xo90xSDJbx4IXtLTCruWWhkD-bObm4ZQL7fXaFtR_WUBOVUC-1NVy3lsai3Ck_yRNq5pOHUo_JnIjScaEaOplcPfhxeXM_eQg3iLNCY7zxi7Rhz4tW3]--></g></svg>